<svg id="Capa_1" enable-background="new 0 0 510.988 510.988" height="512" viewBox="0 0 510.988 510.988" width="512" xmlns="http://www.w3.org/2000/svg"><g><path d="m357.957 189.053c-11.953 51.639-43.614 90.323-92.608 112.726-6.21 2.845-13.365 2.846-19.578 0-49.004-22.403-80.665-61.097-92.608-112.746-22.854 5.461-44.846 5.421-65.856-.16-3.923 7.468-37.362 41.67-37.362 103.128 0 50.297 24.036 97.758 62.72 123.868l139.305 94.021c2.17 1.465 5.012 1.465 7.182 0l139.303-94.021c38.684-26.11 62.72-73.571 62.72-123.868 0-61.252-33.48-95.748-37.362-103.138-22.04 5.864-44.108 5.371-65.856.19z"/><path d="m255.561 273.174c39.847-19.086 64.594-50.527 73.742-93.63-23.786-10.059-48.403-25.699-73.762-46.89-25.339 21.181-49.946 36.811-73.712 46.86 9.128 43.123 33.875 74.574 73.732 93.66z"/><path d="m496.054 74.828c-61.993 1.92-90.478-45.172-92.919-47.135-33.935-41.934-100.568-35.289-124.941 13.496-9.277 18.668-35.992 18.653-45.317 0-12.684-25.409-38.283-41.189-66.808-41.189-42.524 0-61.317 32.722-64.073 35.057-21.495 26.573-54.004 40.808-87.06 39.765-3.712-.117-6.161 3.842-4.449 7.138 47.023 90.515 124.937 113.479 228.653 25.215 9.383-8.002 23.179-8.165 32.853.04 103.054 87.652 181.02 66.139 228.51-25.255 1.711-3.292-.741-7.247-4.449-7.132z"/></g></svg>